PathFileType	4	(X/Y/Z)	RUN4
DataRate	CameraRate	NumFrames	NumMarkers	Units	OrigDataRate	OrigDataStartFrame	OrigNumFrames
100	100	4	42	mm	100	86	128
Frame#	Time	LPSI			RPSI			RTH2			RTH3			LTH1			LTH2			LTH3			RTB1			RTB2			LTB1			LTB2			RCAL			RTOE			RMT5			LCAL			LTOE			LMT5			LACR			RACR			CLAV			C7			RUA1			RUA2			RUA3			RLEL			LUA1			LUA2			LUA3			LLEL			LMEL			RFAsuperior			RFAulna			LFAsuperior			LFAradius			LFAulna			RASI			RTB3			LTB3			RMEL			RFAradius			RTH1			LASI		
		X1	Y1	Z1	X2	Y2	Z2	X3	Y3	Z3	X4	Y4	Z4	X5	Y5	Z5	X6	Y6	Z6	X7	Y7	Z7	X8	Y8	Z8	X9	Y9	Z9	X10	Y10	Z10	X11	Y11	Z11	X12	Y12	Z12	X13	Y13	Z13	X14	Y14	Z14	X15	Y15	Z15	X16	Y16	Z16	X17	Y17	Z17	X18	Y18	Z18	X19	Y19	Z19	X20	Y20	Z20	X21	Y21	Z21	X22	Y22	Z22	X23	Y23	Z23	X24	Y24	Z24	X25	Y25	Z25	X26	Y26	Z26	X27	Y27	Z27	X28	Y28	Z28	X29	Y29	Z29	X30	Y30	Z30	X31	Y31	Z31	X32	Y32	Z32	X33	Y33	Z33	X34	Y34	Z34	X35	Y35	Z35	X36	Y36	Z36	X37	Y37	Z37	X38	Y38	Z38	X39	Y39	Z39	X40	Y40	Z40	X41	Y41	Z41	X42	Y42	Z42	

86	  0.860000	899.438659	1132.456436	-418.587333	876.644678	1132.529218	-306.172199	965.886100	809.776020	-188.525998	1060.414075	681.175131	-195.578717	995.249161	931.751137	-509.681234	873.082638	809.939768	-474.542650	882.227681	666.018389	-463.198201	1198.176886	462.846740	-266.807238	1130.695710	394.102757	-205.295105	764.750214	473.931425	-403.200004	638.287810	525.283008	-459.484084	1148.531683	111.251419	-296.418633	1374.304961	186.853560	-337.936977	1354.571076	124.410798	-250.120876	407.303741	525.570042	-403.240502	391.878029	289.357271	-387.061214	347.558037	332.663724	-480.689426	1025.787603	1577.396892	-485.625458	988.908563	1549.998330	-173.241437	1064.653811	1517.682867	-289.196164	951.635993	1584.732481	-340.089071	848.084961	1503.189810	-146.719199	858.496774	1440.304710	-96.717434	758.759746	1405.552570	-79.446680	701.925380	1359.566820	-64.476416	938.425708	1486.866300	-560.254342	971.670700	1414.930731	-587.975172	904.502801	1354.554442	-631.097816	893.454154	1286.293468	-653.945401	853.442733	1263.767572	-572.376840	774.211468	1279.914226	-46.283243	883.478396	1159.453969	-66.637206	963.008153	1250.360814	-623.465946	1091.260428	1295.016565	-492.049214	1105.136763	1226.274148	-513.794301	1024.158368	1088.229703	-215.000608	1222.251059	276.651892	-289.309494	548.926338	435.111470	-416.128853	714.659915	1326.579985	-148.814160	926.939020	1198.411543	-103.449384	962.953347	967.139089	-161.893488	1062.525744	1063.885598	-459.671694	
87	  0.870000	897.988922	1126.085216	-418.402209	875.133634	1125.772715	-306.349653	962.889436	802.347850	-191.065498	1057.935217	674.724747	-198.585819	996.556871	926.447076	-509.850235	878.495275	800.485721	-474.151230	893.433322	657.199068	-465.962349	1191.191651	452.731931	-268.614655	1121.429148	385.625752	-207.924389	778.238933	468.538062	-407.265957	654.896918	528.338472	-461.358712	1132.279486	102.436758	-299.900352	1359.528000	175.200379	-340.676237	1338.561887	109.613419	-254.417918	424.206641	541.911809	-401.022972	396.590342	306.130536	-396.302396	356.401114	356.204253	-488.482935	1025.095745	1570.962814	-485.003553	989.950725	1542.550310	-172.246797	1065.125458	1511.174692	-288.550740	951.704875	1578.668736	-339.262400	849.842191	1493.902804	-142.645964	862.207754	1430.116498	-93.733027	763.886970	1392.863068	-74.189158	707.855097	1346.311027	-58.780777	936.282139	1481.877325	-559.007554	968.795332	1409.457850	-587.217653	900.625075	1350.458355	-630.160439	888.574300	1282.479621	-652.824765	848.654512	1260.214252	-571.759181	781.496024	1267.710806	-42.213779	892.300749	1149.276172	-65.132531	956.785555	1243.252053	-624.004950	1087.829908	1278.506953	-491.858490	1099.236978	1210.529125	-517.306359	1022.099611	1082.066686	-214.502519	1210.360071	265.976795	-291.631865	560.384693	443.246341	-418.806921	719.505675	1314.264430	-143.390219	934.641686	1188.968404	-102.487272	958.569300	959.958513	-161.245292	1060.739754	1057.744041	-461.261777	
88	  0.880000	896.328429	1118.954222	-418.096023	873.562079	1117.679401	-306.237281	959.861200	794.066284	-195.102858	1054.878684	667.479705	-201.539910	997.719134	920.578065	-510.330006	884.117281	790.620668	-473.581030	905.291905	647.876042	-469.165484	1182.640197	440.706823	-269.766810	1109.589942	375.954620	-210.049798	793.410051	462.617884	-412.343055	673.079103	530.588452	-463.513478	1111.024929	 95.131221	-302.132118	1340.453530	157.643805	-343.110099	1316.572289	 90.962499	-257.849578	442.281426	555.260370	-398.816446	406.940274	320.464224	-404.685928	370.040921	375.884878	-495.328450	1023.981428	1563.423588	-484.453280	991.001989	1534.170001	-171.052003	1065.549860	1503.995170	-287.844239	951.568943	1571.603127	-338.440391	851.680636	1483.226432	-138.240321	866.449100	1418.585100	-90.452276	769.708343	1378.736752	-68.511975	714.662639	1331.554389	-52.531986	933.823560	1475.592542	-557.853056	965.559637	1402.641547	-586.441851	896.434633	1344.960429	-629.101437	883.065828	1277.573444	-651.805810	843.536019	1255.596460	-571.162115	789.634260	1253.950229	-37.678439	901.902127	1137.580494	-63.403193	949.753736	1234.934685	-624.640068	1083.296889	1260.246555	-492.004321	1092.100443	1193.426331	-521.267217	1020.144822	1074.345719	-214.442838	1195.503113	253.314207	-293.168020	574.408995	449.913713	-421.831753	725.010292	1300.560960	-137.438920	943.038358	1178.145176	-101.212480	954.626748	951.767058	-161.125157	1058.795277	1050.932729	-462.555389	
89	  0.890000	894.515975	1111.000536	-417.967692	871.808073	1108.476796	-305.977372	956.439731	785.231437	-198.992415	1051.225401	658.942286	-203.457968	998.564572	914.166789	-511.131888	890.299044	780.094957	-473.407872	917.967313	637.996566	-472.824172	1173.186292	427.457963	-270.695001	1096.436226	365.479809	-211.852970	810.234155	456.106732	-418.188052	692.808925	531.799766	-465.738534	1085.135052	 91.257241	-305.145521	1317.612342	133.568350	-345.440595	1288.806131	 71.274184	-260.109639	461.349463	565.708000	-396.892598	422.437308	331.961739	-412.284932	387.446493	391.539389	-501.202181	1022.417932	1554.889803	-483.775838	992.211717	1524.873462	-169.623616	1065.866835	1495.901090	-287.298817	951.151265	1563.304895	-337.421197	853.727882	1471.221806	-133.523418	871.285320	1405.967754	-86.820578	776.264814	1363.403202	-62.530046	722.495417	1315.528090	-45.814710	930.814522	1468.122913	-556.468648	961.848842	1394.665065	-585.595263	891.924453	1338.193743	-627.801214	876.950289	1271.716756	-650.876264	837.753240	1250.076376	-570.493444	798.774883	1238.879194	-32.815260	912.228070	1124.380617	-61.546920	941.996285	1225.466138	-625.481687	1077.724514	1240.406418	-492.831002	1083.707840	1174.934132	-525.674779	1018.173371	1065.024282	-214.704436	1178.171154	239.628950	-295.518980	590.850405	454.885823	-425.320645	731.183491	1285.582681	-130.971586	952.095055	1165.925038	-99.701016	951.782305	942.202753	-162.198483	1056.738386	1043.431032	-463.886443	
